<svg xmlns="http://www.w3.org/2000/svg" width="256" height="292.571" viewBox="0 0 256 292.571"><path fill="#7289da" d="M226.011,0H29.99A30.062,30.062,0,0,0,0,30.135V227.913a30.061,30.061,0,0,0,29.989,30.135H195.877l-7.754-27.063,18.725,17.408,17.7,16.384L256,292.571V30.135A30.061,30.061,0,0,0,226.011,0ZM169.545,191.05s-5.266-6.291-9.655-11.85c19.164-5.413,26.478-17.408,26.478-17.408a83.608,83.608,0,0,1-16.823,8.63,96.27,96.27,0,0,1-21.211,6.291,102.48,102.48,0,0,1-37.888-.146,122.886,122.886,0,0,1-21.5-6.29,85.833,85.833,0,0,1-10.68-4.974c-.438-.293-.877-.439-1.316-.732a2.022,2.022,0,0,1-.585-.438c-2.633-1.463-4.1-2.487-4.1-2.487s7.022,11.7,25.6,17.261c-4.388,5.56-9.8,12.142-9.8,12.142-32.33-1.024-44.617-22.235-44.617-22.235,0-47.1,21.065-85.285,21.065-85.285,21.065-15.8,41.106-15.36,41.106-15.36l1.463,1.756C80.75,77.53,68.608,89.088,68.608,89.088s3.218-1.755,8.63-4.242c15.653-6.876,28.088-8.777,33.208-9.216a14.334,14.334,0,0,1,2.487-.293,123.776,123.776,0,0,1,29.55-.292,119.247,119.247,0,0,1,44.031,14.043S174.958,78.117,150.089,70.51l2.048-2.34s20.041-.44,41.106,15.36c0,0,21.066,38.18,21.066,85.284,0,0-12.435,21.211-44.764,22.235Zm-68.023-68.316c-8.338,0-14.92,7.314-14.92,16.237s6.728,16.238,14.92,16.238c8.339,0,14.921-7.314,14.921-16.238.147-8.923-6.582-16.237-14.92-16.237m53.394,0c-8.339,0-14.922,7.314-14.922,16.237s6.73,16.238,14.922,16.238c8.338,0,14.92-7.314,14.92-16.238s-6.582-16.237-14.92-16.237"/></svg>