<?xml version="1.0" standalone="no"?>
<!DOCTYPE svg PUBLIC "-//W3C//DTD SVG 20010904//EN"
 "http://www.w3.org/TR/2001/REC-SVG-20010904/DTD/svg10.dtd">
<svg version="1.0" xmlns="http://www.w3.org/2000/svg"
 width="225.000000pt" height="225.000000pt" viewBox="0 0 225.000000 225.000000"
 preserveAspectRatio="xMidYMid meet">
<metadata>
Created by potrace 1.16, written by Peter Selinger 2001-2019
</metadata>
<g transform="translate(0.000000,225.000000) scale(0.100000,-0.100000)"
fill="#000000" stroke="none">
<path d="M1010 2244 c-266 -34 -473 -131 -658 -308 -260 -249 -383 -586 -343
-935 37 -316 196 -590 453 -781 105 -79 260 -154 318 -154 59 -1 66 14 62 145
l-3 104 -94 -3 c-160 -6 -227 31 -288 158 -21 43 -53 85 -94 126 -35 33 -63
66 -63 72 0 19 49 25 93 12 41 -12 85 -52 166 -150 19 -23 48 -48 64 -56 42
-22 124 -28 176 -12 40 12 46 18 59 58 8 25 25 59 38 76 l23 32 -52 6 c-74 10
-194 52 -250 88 -141 90 -216 268 -205 482 6 100 23 153 74 232 33 50 33 51
22 113 -9 48 -9 79 0 133 15 87 26 108 56 108 44 0 150 -39 216 -78 l65 -40
65 15 c95 22 345 22 433 0 67 -17 69 -17 97 3 54 39 177 91 227 97 l51 6 16
-54 c18 -59 21 -184 6 -224 -8 -22 -4 -33 26 -75 58 -81 77 -149 77 -270 0
-296 -128 -462 -405 -524 -56 -12 -97 -26 -91 -29 6 -4 21 -28 34 -54 22 -45
24 -62 27 -263 2 -128 8 -220 14 -227 27 -33 156 10 305 103 97 60 272 232
338 332 250 383 241 900 -23 1267 -53 74 -178 200 -252 255 -127 94 -263 156
-420 191 -83 18 -290 32 -360 23z"/>
</g>
</svg>
