<svg xmlns="http://www.w3.org/2000/svg" width="99.59" height="99.59" viewBox="0 0 99.59 99.59"><defs><linearGradient id="a" x1="-2.847" x2="-2.889" y1="2.229" y2="2.131" gradientUnits="objectBoundingBox"><stop offset="0" stop-color="#37aee2"/><stop offset="1" stop-color="#1e96c8"/></linearGradient><linearGradient id="b" x1=".613" x2=".805" y1=".421" y2=".056" gradientUnits="objectBoundingBox"><stop offset="0" stop-color="#eff7fc"/><stop offset="1" stop-color="#fff"/></linearGradient></defs><path fill="url(#a)" d="M99.59,49.795A49.795,49.795,0,1,1,49.795,0,49.781,49.781,0,0,1,99.59,49.795Z"/><path fill="#c8daea" d="M88.639,124.1c-1.618,0-1.328-.622-1.909-2.158L82,106.341,111.379,88l3.444.913-2.863,7.8Z" transform="translate(-47.974 -51.484)"/><path fill="#a9c9dd" d="M98,149.843a3.242,3.242,0,0,0,2.49-1.245c1.079-1.037,14.938-14.523,14.938-14.523L106.922,132l-7.884,4.979L98,149.428Z" transform="translate(-57.334 -77.226)"/><path fill="url(#b)" d="M70.12,102.141,90.2,116.955c2.282,1.245,3.942.622,4.523-2.116L102.9,76.331c.83-3.361-1.286-4.855-3.486-3.859L51.447,90.979c-3.278,1.328-3.237,3.154-.581,3.942L63.19,98.78,91.7,80.812c1.328-.83,2.573-.373,1.577.539Z" transform="translate(-28.624 -42.221)"/></svg>