<svg xmlns="http://www.w3.org/2000/svg" width="512" height="512" viewBox="0 0 512 512"><path fill="#D42428" d="M7.9 256C7.9 119 119 7.9 256 7.9S504.1 119 504.1 256 393 504.1 256 504.1 7.9 393 7.9 256z"/><path fill="#CC202D" d="M431.4 80.6c96.9 96.9 96.9 254 0 350.8-96.9 96.9-254 96.9-350.8 0L431.4 80.6z"/><path fill="#BA202E" d="M499.1 305.7L376.3 182.9l-144.8 16.5L143.9 335l163.7 163.7c96.2-20.4 171.9-96.5 191.5-193z"/><path fill="#FFF" fill-rule="evenodd" d="M385.8 208.1c0-20.8-16.8-37.6-37.6-37.6H171.6c-20.8 0-37.6 16.9-37.6 37.6v101c0 20.8 16.8 37.7 37.6 37.7h176.5c20.8 0 37.6-16.9 37.6-37.7v-101zm-151.1 93.1v-94.8l71.9 47.4-71.9 47.4z" clip-rule="evenodd"/></svg>
